PathFileType	3	(X/Y/Z)	running_1__view1_aligned.trc
DataRate	CameraRate	NumFrames	NumMarkers	Units	OrigDataRate	OrigDataStartFrame	OrigNumFrames
100.0	100.0	6	19	mm	100.0	224	6401
Frame#	Time	pelvis			neck			head			hip_left			hip_right			knee_left			knee_right			ankle_left			ankle_right			heel_left			heel_right			toe_left			toe_right			shoulder_left			shoulder_right			elbow_left			elbow_right			wrist_left			wrist_right			
		X1	Y1	Z1	X2	Y2	Z2	X3	Y3	Z3	X4	Y4	Z4	X5	Y5	Z5	X6	Y6	Z6	X7	Y7	Z7	X8	Y8	Z8	X9	Y9	Z9	X10	Y10	Z10	X11	Y11	Z11	X12	Y12	Z12	X13	Y13	Z13	X14	Y14	Z14	X15	Y15	Z15	X16	Y16	Z16	X17	Y17	Z17	X18	Y18	Z18	X19	Y19	Z19	
224	2.23000	159.742263	934.316505	-57.071197	116.787288	1458.746448	70.492973	132.894346	1532.560053	218.719736	235.176040	935.674452	-56.224324	84.308308	932.958531	-57.917918	246.811666	569.181415	210.037488	21.930878	495.598681	-22.238446	246.691753	298.368275	-36.386737	13.662278	160.214150	-250.278255	245.775494	280.459764	-86.290924	15.413497	127.639185	-299.639034	246.668235	165.770711	71.539185	11.292583	60.488695	-98.099649	267.438159	1476.052595	-18.281927	-43.897044	1385.546438	24.803406	439.679886	1315.910663	-237.810856	-171.558758	1138.467776	-58.908986	706.905822	1310.034214	-79.065556	-236.436034	1250.857828	158.848711
225	2.24000	156.485036	934.584665	-53.404114	114.020451	1459.609746	74.261785	130.035578	1533.606382	222.384962	231.909478	936.010573	-52.722184	81.060469	933.158739	-54.085938	242.547843	567.498765	206.774873	19.705455	497.389960	-13.323647	241.449452	292.187272	-34.222464	9.872234	163.955280	-241.248926	240.357894	273.258213	-83.601753	11.470682	132.091636	-290.531377	241.407526	162.407666	76.107725	7.505719	62.651836	-91.641301	265.629994	1475.783700	-12.456056	-47.089807	1386.793146	28.578533	435.257692	1312.298577	-223.679608	-172.422720	1138.715751	-51.630463	693.014978	1307.007524	-63.676053	-232.888162	1249.747026	167.265763
226	2.25000	153.227810	934.852826	-49.737030	111.253613	1460.473045	78.030597	127.176811	1534.652711	226.050189	228.642916	936.346694	-49.220045	77.812630	933.358947	-50.253959	238.284021	565.816116	203.512258	17.480033	499.181239	-4.408847	236.207151	286.006268	-32.058191	6.082191	167.696409	-232.219597	234.940294	266.056663	-80.912583	7.527868	136.544087	-281.423719	236.146818	159.044621	80.676265	3.718855	64.814978	-85.182952	263.821829	1475.514804	-6.630185	-50.282571	1388.039853	32.353659	430.835499	1308.686491	-209.548361	-173.286682	1138.963727	-44.351939	679.124134	1303.980833	-48.286551	-229.340290	1248.636225	175.682815
227	2.26000	149.970584	935.120986	-46.069947	108.486776	1461.336344	81.799410	124.318043	1535.699040	229.715415	225.376354	936.682814	-45.717905	74.564790	933.559155	-46.421979	234.020198	564.133466	200.249643	15.254611	500.972518	4.505953	230.964849	279.825265	-29.893917	2.292147	171.437539	-223.190269	229.522693	258.855112	-78.223412	3.585053	140.996538	-272.316061	230.886110	155.681575	85.244805	-0.068009	66.978119	-78.724603	262.013663	1475.245908	-0.804314	-53.475334	1389.286561	36.128786	426.413305	1305.074405	-195.417114	-174.150643	1139.211702	-37.073416	665.233290	1300.954143	-32.897048	-225.792418	1247.525424	184.099867
228	2.27000	146.713358	935.389147	-42.402863	105.719939	1462.199642	85.568222	121.459275	1536.745369	233.380642	222.109792	937.018935	-42.215766	71.316951	933.759364	-42.590000	229.756375	562.450816	196.987028	13.029188	502.763797	13.420752	225.722548	273.644262	-27.729644	-1.497897	175.178668	-214.160940	224.105093	251.653562	-75.534241	-0.357761	145.448990	-263.208403	225.625402	152.318530	89.813344	-3.854873	69.141261	-72.266254	260.205498	1474.977012	5.021558	-56.668098	1390.533268	39.903913	421.991111	1301.462319	-181.285866	-175.014605	1139.459678	-29.794892	651.342445	1297.927452	-17.507546	-222.244546	1246.414623	192.516919
229	2.28000	143.456132	935.657307	-38.735780	102.953102	1463.062941	89.337034	118.600507	1537.791698	237.045868	218.843230	937.355056	-38.713627	68.069112	933.959572	-38.758020	225.492553	560.768167	193.724414	10.803766	504.555076	22.335552	220.480247	267.463259	-25.565371	-5.287941	178.919798	-205.131611	218.687492	244.452011	-72.845071	-4.300576	149.901441	-254.100745	220.364693	148.955485	94.381884	-7.641737	71.304402	-65.807906	258.397333	1474.708116	10.847429	-59.860861	1391.779976	43.679039	417.568917	1297.850233	-167.154619	-175.878567	1139.707653	-22.516369	637.451601	1294.900762	-2.118043	-218.696674	1245.303822	200.933971
